Coordinates
version=1
nRows=19
nColumns=36
inDegrees=yes

Units are S.I. units (second, meters, Newtons, ...)
If the header above contains a line with 'inDegrees', this indicates whether rotational values are in degrees (yes) or radians (no).

endheader
time	pelvis_tilt	pelvis_list	pelvis_rotation	pelvis_tx	pelvis_ty	pelvis_tz	hip_flexion_r	hip_adduction_r	hip_rotation_r	knee_angle_r	knee_angle_r_beta	ankle_angle_r	subtalar_angle_r	mtp_angle_r	hip_flexion_l	hip_adduction_l	hip_rotation_l	knee_angle_l	knee_angle_l_beta	ankle_angle_l	subtalar_angle_l	mtp_angle_l	lumbar_extension	lumbar_bending	lumbar_rotation	arm_flex_r	arm_add_r	arm_rot_r	elbow_flex_r	pro_sup_r	arm_flex_l	arm_add_l	arm_rot_l	elbow_flex_l	pro_sup_l
      0.96000000	     -7.00510683	     -0.71571782	      3.62906777	     -0.75487340	      1.18719147	     -0.60703906	     17.14786682	     -1.71140067	     -7.13237141	     64.41118805	      1.12418731	      1.18952247	    -17.00553895	     -5.75031177	     17.95566986	     -1.41330804	     -0.76915470	     61.05817252	      1.06566615	     -1.91880070	    -14.86946947	     -5.75031177	    -10.73565051	      3.12133713	     -4.88493618	      9.91229842	     -4.28372474	     -5.00716042	     87.62321077	    107.91858701	     21.47323155	    -11.98689793	      5.09174633	     70.69749571	    109.53346367
      0.97000000	     -5.43551411	     -0.48180828	      3.62384247	     -0.74046910	      1.19668660	     -0.60705655	     15.63770335	     -2.36960046	     -7.57320062	     64.01014211	      1.11718773	     -6.03557804	    -17.83946721	     -5.81123656	     16.30379709	     -1.85579346	     -1.60758771	     60.03370438	      1.04778580	    -10.68513084	    -15.97765469	     -5.81123656	    -11.40430221	      3.01857264	     -4.99642650	      8.92638918	     -4.16640077	     -5.56893993	     88.79971753	    107.96111610	     20.59776449	    -12.05511941	      4.25496791	     72.07620727	    109.61015371
      0.98000000	     -3.92842392	     -0.54304212	      3.76787699	     -0.72581225	      1.20577217	     -0.60714575	     14.03238108	     -2.76468730	     -8.32607569	     63.12455096	      1.10173125	    -12.64285811	    -18.56131296	     -5.87322051	     14.74739217	     -2.61017381	     -2.26096561	     58.75788804	      1.02551861	    -19.62631421	    -16.93227387	     -5.87322051	    -12.05069449	      3.33370568	     -5.28707193	      8.05127077	     -4.05126098	     -5.99052308	     89.64662551	    107.95259070	     19.55909462	    -12.07823393	      3.29907987	     73.10299313	    109.64959479
      0.99000000	     -2.90095694	     -0.75376943	      3.93398949	     -0.71162129	      1.21342345	     -0.60720836	     12.97864281	     -3.01441760	     -9.05167585	     62.14255355	      1.08459217	    -15.26117152	    -17.41455693	     -5.88886204	     13.83783748	     -3.54247565	     -2.81648203	     57.61128737	      1.00550665	    -24.60141546	    -14.87838999	     -5.88886204	    -12.29954539	      3.77859810	     -5.43220971	      7.08727037	     -3.94878196	     -6.61862368	     90.37543233	    107.95406681	     18.59398142	    -12.04074710	      2.65281635	     73.68072789	    109.66606995
      1.00000000	     -1.93897473	     -0.63861597	      3.78338055	     -0.69855944	      1.22011698	     -0.60708810	     12.23373838	     -3.57765745	     -9.52585405	     61.11907697	      1.06672913	    -15.83342452	    -18.04491522	     -5.95314706	     12.88360060	     -3.99461585	     -3.79122177	     56.04667283	      0.97819898	    -28.89645095	    -16.60024524	     -5.95314706	    -12.88825467	      3.83995971	     -5.43640649	      6.51399704	     -3.82244378	     -7.15800781	     90.85415656	    107.90297622	     17.70593649	    -11.95107516	      1.55293198	     74.55512205	    109.72486270
      1.01000000	     -1.53203879	     -0.55997301	      3.45117074	     -0.68644283	      1.22506468	     -0.60652238	     12.30801203	     -4.00097565	     -9.63903224	     59.81934536	      1.04404453	    -14.66612059	    -17.69309031	     -5.97834431	     12.71338499	     -4.52554151	     -4.89200823	     54.57213007	      0.95246335	    -28.48063760	    -16.02069305	     -5.97834431	    -13.07741390	      3.82506949	     -5.10872281	      5.91645607	     -3.68039905	     -7.91975050	     91.20318235	    107.85217041	     17.00931737	    -11.93758423	      0.87912785	     75.02602653	    109.74464556
      1.02000000	     -1.58462792	     -0.49534236	      3.24602516	     -0.67505191	      1.22840893	     -0.60629219	     12.91326068	     -4.45219107	     -9.81872782	     57.96821724	      1.01173625	    -14.43234401	    -17.32278899	     -5.98415608	     13.23270353	     -4.85372703	     -5.62641460	     52.89155789	      0.92313183	    -27.64372811	    -16.03827118	     -5.98415608	    -12.87957032	      3.87615180	     -4.96001974	      5.42237702	     -3.64106925	     -8.37816459	     91.30700081	    107.82026183	     16.35324406	    -12.12615732	      0.66893328	     75.13432226	    109.74968319
      1.03000000	     -1.30783994	     -0.40856762	      2.81547564	     -0.66399963	      1.23116346	     -0.60577058	     13.19583960	     -4.80790286	     -9.60350602	     55.70545141	      0.97224354	    -14.41069418	    -15.51722536	     -6.01593608	     13.27966281	     -5.22941571	     -6.52118018	     50.82622769	      0.88708502	    -25.18304619	    -14.66756284	     -6.01593608	    -13.39809410	      3.86932795	     -4.54085000	      5.17650281	     -3.26428775	     -9.48232330	     91.51357947	    107.65052923	     15.73061781	    -12.04780910	     -0.13690955	     75.66485848	    109.78329745
      1.04000000	     -1.62220297	     -0.30561037	      2.54840087	     -0.65326593	      1.23197519	     -0.60538159	     14.15466038	     -5.20668936	     -9.52194680	     53.29034012	      0.93009189	    -14.35698952	    -15.06701053	     -6.02196591	     14.12014545	     -5.41482040	     -6.94376139	     48.62817394	      0.84872174	    -24.64584570	    -14.37375082	     -6.02196591	    -13.21508918	      3.85715778	     -4.32337891	      4.81194941	     -3.21780924	     -9.92601432	     91.52635623	    107.59493255	     15.05337049	    -12.30798960	     -0.26963691	     75.75929270	    109.79512185
      1.05000000	     -1.53845657	     -0.14587912	      1.99290280	     -0.64254934	      1.23249563	     -0.60442619	     14.72110099	     -5.55788420	     -9.15865101	     50.57643214	      0.88272526	    -14.01096878	    -13.52390257	     -6.07982513	     14.27026549	     -5.68963860	     -7.64106491	     45.96426507	      0.80222776	    -23.61156777	    -12.54499193	     -6.07982513	    -13.69685507	      3.68400608	     -3.91520482	      4.80617348	     -2.94881941	    -10.65042708	     91.26821870	    107.18968756	     14.35830181	    -12.52523266	     -0.85353629	     76.20722613	    109.92969638
      1.06000000	     -1.73556949	     -0.07445779	      1.58150870	     -0.63200336	      1.23161494	     -0.60375147	     15.48630259	     -5.78141621	     -8.94355355	     47.44480893	      0.82806813	    -14.00478412	    -12.84350481	     -6.09846684	     14.80191070	     -5.97474081	     -8.20515211	     43.17086280	      0.75347370	    -23.74615850	    -12.22544559	     -6.09846684	    -13.85237618	      3.63098586	     -3.54478131	      4.68949025	     -2.82625525	    -11.30397331	     91.01229881	    107.02665036	     13.73266776	    -12.75370918	     -1.12504653	     76.33323828	    109.99343175
      1.07000000	     -2.16744499	     -0.02715261	      1.31382889	     -0.62151041	      1.22931503	     -0.60343672	     16.40378656	     -6.03326402	     -9.01279214	     44.06180749	      0.76902362	    -13.91465900	    -12.29876510	     -6.10582385	     15.64929219	     -6.19932130	     -8.65721006	     40.32635578	      0.70382768	    -23.57488437	    -12.13090894	     -6.10582385	    -13.74280012	      3.67810535	     -3.28306144	      4.42396957	     -2.82973580	    -11.77479558	     90.97343301	    106.95318328	     12.99789076	    -13.01615305	     -1.23925874	     76.42687554	    110.03125371
      1.08000000	     -2.01150614	     -0.02237218	      0.97372239	     -0.61104532	      1.22721919	     -0.60300637	     16.47864346	     -6.14944389	     -9.00442225	     40.16224736	      0.70096345	    -14.58872318	    -10.78866114	     -6.12834978	     15.64609227	     -6.47285838	     -9.22089451	     36.97662451	      0.64536384	    -23.95243332	    -11.71747902	     -6.12834978	    -14.43298373	      3.78199556	     -3.00563127	      4.53588704	     -2.72643152	    -12.35329621	     90.66537429	    106.74729638	     12.28077162	    -13.33713446	     -1.54592899	     76.71660428	    110.10024090
      1.09000000	     -2.30774569	      0.03864941	      0.60541004	     -0.60074615	      1.22333735	     -0.60255080	     17.13324397	     -6.28188223	     -8.81701752	     36.42740145	      0.63577809	    -15.24494072	     -9.56814486	     -6.14462375	     16.12689765	     -6.57915925	     -9.47592262	     33.60373485	      0.58649581	    -23.78793315	    -11.42423462	     -6.14462375	    -14.59579260	      3.81400941	     -2.67032974	      4.43215001	     -2.73774630	    -12.77502226	     90.56149788	    106.53947414	     11.34371361	    -13.78875130	     -1.64368247	     77.15415092	    110.03727231
      1.10000000	     -2.38502775	      0.17370499	      0.22844928	     -0.59017635	      1.21875017	     -0.60211390	     17.47258471	     -6.52794167	     -8.89074252	     32.59227735	      0.56884255	    -16.41269318	     -8.11075243	     -6.17275483	     16.24916483	     -6.65728229	    -10.02539042	     30.04556656	      0.52439406	    -23.79430037	    -10.86011080	     -6.17275483	    -15.00044245	      3.73120284	     -2.41986572	      4.38863105	     -2.76586861	    -13.06911091	     90.43472739	    106.22413547	     10.31459319	    -14.12837332	     -2.11092155	     77.82467819	    109.92552899
      1.11000000	     -2.58894498	      0.24375147	     -0.06336139	     -0.57929518	      1.21290691	     -0.60177280	     17.89567232	     -6.67500183	     -8.99705032	     28.77698203	      0.50225309	    -17.79297163	     -6.61870596	     -6.20590826	     16.50840708	     -6.75899512	    -10.40792799	     26.51609672	      0.46279319	    -23.88274742	     -9.85818792	     -6.20590826	    -15.19132515	      3.73968873	     -2.28302481	      4.27744058	     -2.79688125	    -13.34466491	     90.32269985	    105.89886873	      9.15290044	    -14.34642413	     -2.78555358	     78.52782307	    109.85367968
      1.12000000	     -2.83579520	      0.21273644	     -0.24243777	     -0.56798202	      1.20592992	     -0.60156611	     18.27430480	     -6.70654511	     -9.22243893	     24.96809744	      0.43577551	    -19.35202938	     -4.91819300	     -6.23663399	     16.83184618	     -6.93704855	    -10.65789053	     23.07420688	      0.40272088	    -24.20041873	     -8.42618563	     -6.23663399	    -15.23239366	      3.88771584	     -2.22583990	      4.05086233	     -2.87180591	    -13.65342902	     90.25338722	    105.66685034	      7.86537027	    -14.62722546	     -3.34053692	     79.26667177	    109.85443935
      1.13000000	     -3.18497937	      0.16127462	     -0.39952900	     -0.55650241	      1.19766980	     -0.60142880	     18.76474830	     -6.67540787	     -9.24360344	     21.32485539	      0.37218894	    -20.84679126	     -3.09487837	     -6.25674051	     17.28832790	     -7.12307194	    -10.80632070	     19.76657811	      0.34499187	    -24.66838340	     -6.96574576	     -6.25674051	    -15.06520562	      4.07426691	     -2.13595976	      3.70204054	     -2.98165570	    -13.97701650	     90.27958737	    105.52945331	      6.53008997	    -14.98310933	     -3.67800016	     80.00462650	    109.84985894
      1.14000000	     -3.38063131	      0.17970573	     -0.63819690	     -0.54493221	      1.18844262	     -0.60120970	     19.15181080	     -6.72899545	     -9.32386504	     17.96622924	      0.31356985	    -22.10999008	     -1.22750087	     -6.30364875	     17.55554710	     -7.31923792	    -11.51764766	     16.58637638	      0.28948688	    -24.86467975	     -5.26381750	     -6.30364875	    -14.99823850	      4.19320604	     -2.34966393	      3.63597279	     -3.13085605	    -13.75610062	     90.11684045	    105.30140223	      4.81783416	    -15.29859542	     -4.71003400	     81.06989026	    109.78961081
